<svg xmlns="http://www.w3.org/2000/svg" xmlns:xlink="http://www.w3.org/1999/xlink" width="213.277" height="138.582" viewBox="0 0 213.277 138.582">
  <defs>
    <filter id="balance-scale-right-solid" x="0" y="0" width="213.277" height="138.582" filterUnits="userSpaceOnUse">
      <feOffset dy="3" input="SourceAlpha"/>
      <feGaussianBlur stdDeviation="3" result="blur"/>
      <feFlood flood-opacity="0.161"/>
      <feComposite operator="in" in2="blur"/>
      <feComposite in="SourceGraphic"/>
    </filter>
  </defs>
  <g transform="matrix(1, 0, 0, 1, 0, 0)" filter="url(#balance-scale-right-solid)">
    <path id="balance-scale-right-solid-2" data-name="balance-scale-right-solid" d="M29.292,109.274v7.536c0,2.082,2.185,3.768,4.882,3.768h68.347c2.7,0,4.882-1.686,4.882-3.768V36.089a27.445,27.445,0,0,0,3.964-1.677l43.342,11.217c2.557.662,5.324-.4,6.182-2.374l3.1-7.145c.857-1.974-.522-4.11-3.076-4.771L121.74,21.2a14.527,14.527,0,0,0,.308-2.362C122.048,8.433,111.119,0,97.639,0,88.58,0,80.765,3.85,76.552,9.5L40.569.192c-2.557-.662-5.324.4-6.182,2.374l-3.1,7.145c-.857,1.974.522,4.11,3.076,4.771L74.636,24.907c2.221,5,7.006,9.077,13.236,11.18v69.419h-53.7C31.476,105.505,29.292,107.192,29.292,109.274ZM0,71.592C0,82,17.486,90.433,39.055,90.433S78.111,82,78.111,71.592H78.1c0-3.69.635-1.707-25.951-42.748-5.395-8.328-20.815-8.311-26.2,0C-.4,69.536.006,67.781.006,71.592Zm17.087-3.768L39.055,33.91,61.024,67.824Zm100.086,33.914h-.006c0,10.4,17.486,18.841,39.055,18.841s39.055-8.436,39.055-18.841h-.006c0-3.69.635-1.707-25.951-42.748-5.395-8.328-20.815-8.311-26.2,0C116.764,99.681,117.173,97.927,117.173,101.737Zm17.081-3.768,21.969-33.914,21.969,33.914Z" transform="translate(9 6)" fill="#f3f3f3"/>
  </g>
</svg>
