<svg xmlns="http://www.w3.org/2000/svg" xmlns:xlink="http://www.w3.org/1999/xlink" width="105.686" height="100.148" viewBox="0 0 105.686 100.148">
  <defs>
    <filter id="instagram-square-brands" x="0" y="0" width="105.686" height="100.148" filterUnits="userSpaceOnUse">
      <feOffset dy="3" input="SourceAlpha"/>
      <feGaussianBlur stdDeviation="3" result="blur"/>
      <feFlood flood-opacity="0.161"/>
      <feComposite operator="in" in2="blur"/>
      <feComposite in="SourceGraphic"/>
    </filter>
  </defs>
  <g transform="matrix(1, 0, 0, 1, 0, 0)" filter="url(#instagram-square-brands)">
    <g id="instagram-square-brands-2" data-name="instagram-square-brands" transform="translate(-6.26 -40.43)" fill="none">
      <path d="M59.1,74.8c-7.521,0-13.616,5.689-13.614,12.7s6.1,12.7,13.621,12.7S72.723,94.51,72.724,87.5,66.621,74.8,59.1,74.8Zm31.842-9.761a13.357,13.357,0,0,0-7.765-7.24c-5.362-1.974-18.128-1.531-24.077-1.531S40.4,55.807,35.02,57.8a13.357,13.357,0,0,0-7.764,7.24c-2.114,5-1.642,16.914-1.642,22.457s-.472,17.443,1.652,22.459a13.357,13.357,0,0,0,7.764,7.24c5.362,1.974,18.128,1.531,24.08,1.531s18.7.459,24.077-1.531a13.357,13.357,0,0,0,7.764-7.24c2.132-5,1.642-16.914,1.642-22.457s.49-17.441-1.642-22.457ZM59.1,107.017c-11.563,0-20.937-8.74-20.937-19.521S47.536,67.974,59.1,67.974,80.036,76.714,80.036,87.5a18.852,18.852,0,0,1-6.125,13.811A21.707,21.707,0,0,1,59.1,107.017Zm21.8-35.3a4.568,4.568,0,1,1,4.884-4.556,4.395,4.395,0,0,1-1.421,3.226,5.061,5.061,0,0,1-3.454,1.339Zm18.767,31.5c-.329,6.1-1.823,11.508-6.6,15.95s-10.571,5.864-17.107,6.154c-6.743.355-26.96.355-33.7,0-6.544-.307-12.322-1.7-17.107-6.154s-6.289-9.861-6.6-15.95c-.38-6.29-.38-25.142,0-31.424.329-6.1,1.805-11.508,6.6-15.95S35.737,49.986,42.256,49.7c6.743-.355,26.96-.355,33.7,0C82.5,50,88.3,51.4,93.066,55.85s6.289,9.861,6.6,15.962C100.046,78.078,100.046,96.913,99.666,103.208Z" stroke="none"/>
      <path d="M 59.10711669921875 49.42966461181641 C 52.36711883544922 49.42966461181641 45.62712097167969 49.51834106445312 42.25553131103516 49.69569396972656 C 35.73702239990234 49.98612976074219 29.94364929199219 51.39071655273438 25.14861297607422 55.83298492431641 C 20.35355377197266 60.27527618408203 18.87776947021484 65.68171691894531 18.54839324951172 71.78330230712891 C 18.16795349121094 78.06582641601562 18.16795349121094 96.91815948486328 18.54839324951172 103.2078094482422 C 18.85990142822266 109.2975006103516 20.36376953125 114.7063140869141 25.14861297607422 119.1581268310547 C 29.93343353271484 123.6099395751953 35.71148681640625 125.0049896240234 42.25553131103516 125.3120880126953 C 48.99871063232422 125.6667938232422 69.21551513671875 125.6667938232422 75.95870208740234 125.3120880126953 C 82.49508666992188 125.0216522216797 88.28846740722656 123.6004104614258 93.06562805175781 119.1581268310547 C 97.84279632568359 114.7158508300781 99.33646392822266 109.3093948364258 99.66583251953125 103.2078094482422 C 100.0462799072266 96.91338348388672 100.0462799072266 78.07772827148438 99.66583251953125 71.81187438964844 C 99.35433959960938 65.71028137207031 97.83258056640625 60.30146789550781 93.06562805175781 55.84964752197266 C 88.29866027832031 51.39785003662109 82.50274658203125 50.00279998779297 75.95870208740234 49.69569396972656 C 72.58711242675781 49.51834106445312 65.84711456298828 49.42966461181641 59.10711669921875 49.42966461181641 M 59.09946441650391 56.26628112792969 C 65.04855346679688 56.26625823974609 77.81494140625 55.82345581054688 83.17681121826172 57.79702758789062 C 86.72840881347656 59.10371398925781 89.53986358642578 61.72507476806641 90.94131469726562 65.03656005859375 L 90.95151519775391 65.03894805908203 C 93.08348846435547 70.05495452880859 92.59327697753906 81.95340728759766 92.59327697753906 87.49555969238281 C 92.59327697753906 93.03768920898438 93.08348846435547 104.9528274536133 90.95151519775391 109.9521560668945 C 89.55007934570312 113.2636566162109 86.73862457275391 115.8850250244141 83.18702697753906 117.1917037963867 C 77.80982971191406 119.1819305419922 65.06134033203125 118.7224426269531 59.10967636108398 118.7224502563477 C 53.15800476074219 118.7224578857422 40.39163970947266 119.1652679443359 35.02976989746094 117.1917037963867 C 31.47817230224609 115.8850250244141 28.66670227050781 113.2636566162109 27.26527404785156 109.9521560668945 C 25.14094543457031 104.9361572265625 25.61328887939453 93.03531646728516 25.61328887939453 87.49318695068359 C 25.61328887939453 81.9510498046875 25.14094543457031 70.03590393066406 27.25505065917969 65.03656005859375 C 28.65648651123047 61.72507476806641 31.46794128417969 59.10371398925781 35.01954650878906 57.79702758789062 C 40.39674377441406 55.80680847167969 53.15031433105469 56.26627349853516 59.09946441650391 56.26628112792969 M 80.89588928222656 62.59878540039062 C 78.19655609130859 62.59921264648438 76.00883483886719 64.64010620117188 76.009765625 67.15692138671875 C 76.01071166992188 69.67296600341797 78.198486328125 71.71187591552734 80.89666748046875 71.71187591552734 C 80.89749145507812 71.71187591552734 80.89846801757812 71.71187591552734 80.8992919921875 71.71187591552734 L 80.90951538085938 71.72139739990234 C 82.20587158203125 71.72079467773438 83.44859313964844 71.23892974853516 84.36317443847656 70.38231658935547 C 85.27775573730469 69.52570343017578 85.78890228271484 68.36482238769531 85.78370666503906 67.1561279296875 C 85.78416442871094 64.63930511474609 83.59606170654297 62.59878540039062 80.89588928222656 62.59878540039062 M 59.09946441650391 67.97428131103516 C 47.53636932373047 67.97428131103516 38.16262054443359 76.71424865722656 38.16262054443359 87.49555969238281 C 38.16262054443359 98.27684783935547 47.53635406494141 107.0168533325195 59.09946441650391 107.0168533325195 C 59.10828018188477 107.0168609619141 59.11614990234375 107.0168685913086 59.12496185302734 107.0168685913086 C 64.67029571533203 107.0168685913086 69.9898681640625 104.9626922607422 73.91152954101562 101.3061828613281 C 77.83940887451172 97.64386749267578 80.04307556152344 92.67486572265625 80.03628540039062 87.49555969238281 C 80.03628540039062 76.71424865722656 70.66255187988281 67.97428131103516 59.09946441650391 67.97428131103516 M 59.10451507568359 100.1939010620117 C 51.58479309082031 100.1939010620117 45.48728942871094 94.51035308837891 45.48541259765625 87.49873352050781 C 45.48352813720703 80.48625183105469 51.57847595214844 74.79982757568359 59.09946441650391 74.79721069335938 L 59.09946441650391 74.79719543457031 C 66.62142181396484 74.79982757568359 72.71900939941406 80.48373413085938 72.72371673583984 87.49714660644531 C 72.72277069091797 94.50962066650391 66.62554168701172 100.1939010620117 59.10626220703125 100.1939010620117 C 59.1053466796875 100.1939010620117 59.10543441772461 100.1939010620117 59.10451507568359 100.1939010620117 M 59.10711669921875 46.42965698242188 C 66.53408813476562 46.42965698242188 72.88716125488281 46.53045654296875 76.10627746582031 46.69931030273438 C 80.04161071777344 46.88446044921875 83.22317504882812 47.41513061523438 86.11770629882812 48.36919403076172 C 89.5841064453125 49.51175689697266 92.52656555175781 51.24143981933594 95.11322021484375 53.65708923339844 C 97.722412109375 56.09377288818359 99.59591674804688 58.87062072753906 100.8408355712891 62.14633178710938 C 101.8775253295898 64.87411499023438 102.4730072021484 67.98133087158203 102.6611862182617 71.64445495605469 C 103.0467147827148 78.02183532714844 103.046630859375 96.97737121582031 102.6609725952148 103.3787689208984 C 102.4618148803711 107.0546188354492 101.8657989501953 110.1589126586914 100.8389587402344 112.8683700561523 C 99.59534454345703 116.1498107910156 97.72090148925781 118.9258270263672 95.10854339599609 121.3550643920898 C 92.51412963867188 123.7675933837891 89.57200622558594 125.4963989257812 86.11403656005859 126.6402587890625 C 83.24187469482422 127.5903625488281 79.96732330322266 128.1360931396484 76.10382843017578 128.30859375 C 72.88373565673828 128.4773864746094 66.53202819824219 128.578125 59.10711669921875 128.578125 C 51.68037414550781 128.578125 45.32743072509766 128.4773254394531 42.10809326171875 128.3084716796875 C 38.17510223388672 128.1234741210938 34.995849609375 127.5927658081055 32.10256958007812 126.6383666992188 C 28.64315795898438 125.4972229003906 25.70005035400391 123.7688522338867 23.1051025390625 121.3545074462891 C 20.48778533935547 118.9193572998047 18.61054229736328 116.1412353515625 17.36611938476562 112.8614120483398 C 16.33484649658203 110.1433792114258 15.74174499511719 107.040397644043 15.55309295654297 103.3762283325195 C 15.16751861572266 96.97602844238281 15.1676025390625 77.99956512451172 15.55332183837891 71.61112976074219 C 15.75560760498047 67.87777709960938 16.33223724365234 64.86331176757812 17.3677978515625 62.12479400634766 C 18.61054229736328 58.83838653564453 20.48876953125 56.06044769287109 23.10978698730469 53.63226318359375 C 25.7105712890625 51.22282409667969 28.65695953369141 49.49758148193359 32.11734008789062 48.35795593261719 C 34.98194122314453 47.41454315185547 38.25070953369141 46.87193298339844 42.11048126220703 46.69917297363281 C 45.330322265625 46.5303955078125 51.68195343017578 46.42965698242188 59.10711669921875 46.42965698242188 Z M 59.09946441650391 59.26628112792969 C 58.23827743530273 59.26628112792969 57.22731781005859 59.2567138671875 56.15699768066406 59.24659729003906 C 54.86010360717773 59.23432922363281 53.39016723632812 59.22043609619141 51.87200927734375 59.22043609619141 C 48.89030456542969 59.22043609619141 39.81656646728516 59.22043609619141 36.06085968017578 60.61050415039062 L 36.05541229248047 60.61251831054688 C 33.29257965087891 61.62899780273438 31.09197235107422 63.66767883300781 30.017822265625 66.20578765869141 C 28.44166564941406 69.93302154541016 28.53695678710938 79.24671936035156 28.59390258789062 84.81146240234375 C 28.60387420654297 85.78567504882812 28.61328887939453 86.70584869384766 28.61328887939453 87.49318695068359 C 28.61328887939453 88.27816009521484 28.60392761230469 89.19477081298828 28.59402465820312 90.16519927978516 C 28.53723907470703 95.72797393798828 28.44218444824219 105.0383605957031 30.02774047851562 108.7822265625 C 31.10218048095703 111.3210601806641 33.30279541015625 113.3597259521484 36.06562042236328 114.3762054443359 C 39.83858489990234 115.7649307250977 49.02234649658203 115.7649307250977 52.04020690917969 115.7649307250977 C 53.52442169189453 115.7649307250977 54.96039581298828 115.7520599365234 56.22732925415039 115.7407073974609 C 57.27498245239258 115.7313232421875 58.26453018188477 115.7224502563477 59.10967636108398 115.7224502563477 C 59.97135543823242 115.7224502563477 60.98266220092773 115.7320098876953 62.0533561706543 115.7421417236328 C 63.35015487670898 115.75439453125 64.81998443603516 115.7683029174805 66.3377685546875 115.7683029174805 C 69.31869506835938 115.7683029174805 78.3900146484375 115.7683029174805 82.14569091796875 114.3782348632812 L 82.15116882324219 114.3762054443359 C 84.91398620605469 113.3597259521484 87.11459350585938 111.3210601806641 88.18874359130859 108.7829437255859 L 88.19197082519531 108.7753448486328 C 89.77424621582031 105.0650100708008 89.67404937744141 95.78173065185547 89.61418151855469 90.23516082763672 C 89.60343933105469 89.23917388916016 89.59327697753906 88.29842376708984 89.59327697753906 87.49555969238281 C 89.59327697753906 86.69254302978516 89.60343933105469 85.75199890136719 89.61418151855469 84.75624084472656 C 89.66605377197266 79.95326232910156 89.74815368652344 72.3458251953125 88.73834991455078 67.97702026367188 C 88.54254150390625 69.70822143554688 87.72039794921875 71.34827423095703 86.41395568847656 72.57190704345703 C 84.93507385253906 73.95706176757812 82.980712890625 74.72043609619141 80.91090393066406 74.72139739990234 L 79.72987365722656 74.72194671630859 L 79.61088562011719 74.61117553710938 C 79.25173950195312 74.55445098876953 78.90057373046875 74.47435760498047 78.55939483642578 74.37269592285156 C 79.57538604736328 75.70382690429688 80.43278503417969 77.13611602783203 81.12300872802734 78.65765380859375 C 82.39257049560547 81.45629119873047 83.03628540039062 84.42979431152344 83.03628540039062 87.49555969238281 C 83.04022216796875 90.49214172363281 82.41964721679688 93.41734313964844 81.19181823730469 96.18595886230469 C 79.97064208984375 98.93956756591797 78.20951843261719 101.400505065918 75.95738220214844 103.5003814697266 C 73.72434234619141 105.5824356079102 71.11703491210938 107.2077865600586 68.20790100097656 108.3312606811523 C 65.31174468994141 109.4497451782227 62.25580978393555 110.0168609619141 59.12496948242188 110.0168609619141 L 59.09492874145508 110.0168533325195 C 55.8946647644043 110.0168533325195 52.78244781494141 109.4303283691406 49.84928894042969 108.2735824584961 C 47.00499725341797 107.1518936157227 44.44790649414062 105.5435943603516 42.2490234375 103.4933853149414 C 40.03524780273438 101.4292907714844 38.29476928710938 99.02034759521484 37.07590484619141 96.33346557617188 C 35.80634307861328 93.53482055664062 35.16262054443359 90.56131744384766 35.16262054443359 87.49555969238281 C 35.16262054443359 84.42979431152344 35.80634307861328 81.45629119873047 37.07590484619141 78.65765380859375 C 38.29476928710938 75.97077178955078 40.03526306152344 73.56182098388672 42.24903869628906 71.49773406982422 C 44.44791412353516 69.44751739501953 47.00501251220703 67.83924102783203 49.84928894042969 66.71754455566406 C 52.78246307373047 65.56079864501953 55.8946647644043 64.97428131103516 59.09946441650391 64.97428131103516 C 62.30426406860352 64.97428131103516 65.41645812988281 65.56079864501953 68.34963989257812 66.71754455566406 C 70.14224243164062 67.42449188232422 71.8206787109375 68.32465362548828 73.36735534667969 69.406982421875 C 73.13534545898438 68.6964111328125 73.01007080078125 67.94080352783203 73.009765625 67.15805053710938 C 73.00901031494141 65.09939575195312 73.85568237304688 63.17543792724609 75.39381408691406 61.74054718017578 C 76.36850738525391 60.83126831054688 77.54875946044922 60.19088745117188 78.83148956298828 59.85948944091797 C 74.48057556152344 59.22378540039062 68.49289703369141 59.22380065917969 66.16720581054688 59.22380065917969 C 64.68312072753906 59.22380065917969 63.24738311767578 59.23666381835938 61.98065185546875 59.24802398681641 C 60.93338394165039 59.25740814208984 59.94418334960938 59.26628112792969 59.09946441650391 59.26628112792969 Z M 59.10626220703125 97.19390106201172 C 64.96002197265625 97.19390106201172 69.72299194335938 92.84377288818359 69.72371673583984 87.49674224853516 C 69.72013092041016 82.15151977539062 64.95363616943359 77.79924011230469 59.09841156005859 77.79719543457031 C 53.24588775634766 77.79924011230469 48.48397064208984 82.15097045898438 48.48541259765625 87.49793243408203 C 48.48684692382812 92.84430694580078 53.25055694580078 97.19390106201172 59.10451507568359 97.19390106201172 L 59.10626220703125 97.19390106201172 Z" stroke="none" fill="#fafafa"/>
    </g>
  </g>
</svg>
